<svg xmlns="http://www.w3.org/2000/svg" viewBox="0 0 147.04 90.25"><defs><style>.cls-1{fill:#286060;}.cls-2{fill:#40bea8;}.cls-3{fill:none;}</style></defs><title>x</title><g id="IssueBoards-Body"><rect class="cls-1" x="35.54" y="43.03" width="111.5" height="4.46" rx="2.23"/><rect class="cls-1" x="35.54" y="75.25" width="111.5" height="4.46" rx="2.23"/><path class="cls-2" d="M41.47,15.49l-.86-2.39h-3.3l-.85,2.39H35L38.2,6.82h1.54L43,15.49Zm-1.23-3.61L39.4,9.53c0-.16-.14-.41-.24-.75S39,8.2,39,8a14.51,14.51,0,0,1-.47,1.59l-.76,2.25Z"/><path class="cls-2" d="M51.14,11.09A4.3,4.3,0,0,1,50,14.36a4.74,4.74,0,0,1-3.42,1.13H44.11V6.85H46.8A4.45,4.45,0,0,1,50,8,4.13,4.13,0,0,1,51.14,11.09Zm-1.49.05c0-2.07-1-3.1-2.9-3.1H45.52v6.27h1Q49.65,14.31,49.65,11.14Z"/><path class="cls-2" d="M60,11.09a4.33,4.33,0,0,1-1.18,3.27,4.76,4.76,0,0,1-3.43,1.13H53V6.85h2.69A4.43,4.43,0,0,1,58.9,8,4.13,4.13,0,0,1,60,11.09Zm-1.49.05c0-2.07-1-3.1-2.9-3.1H54.4v6.27h1Q58.53,14.31,58.53,11.14Z"/><path class="cls-2" d="M66.76,15.49H61.88V6.85h4.88v1.2H63.29V10.4h3.26v1.19H63.29v2.69h3.47Z"/><path class="cls-2" d="M75.66,11.09a4.3,4.3,0,0,1-1.19,3.27,4.75,4.75,0,0,1-3.42,1.13H68.63V6.85h2.69A4.45,4.45,0,0,1,74.51,8,4.13,4.13,0,0,1,75.66,11.09Zm-1.49.05c0-2.07-1-3.1-2.9-3.1H70.05v6.27h1q3.12,0,3.12-3.17Z"/><path class="cls-2" d="M80.66,15.49V6.85h1.41v7.43h3.66v1.21Z"/><path class="cls-2" d="M92.58,15.49l-.86-2.39h-3.3l-.85,2.39H86.08l3.23-8.67h1.54l3.23,8.67Zm-1.23-3.61-.84-2.35a7.11,7.11,0,0,1-.25-.75c-.1-.33-.18-.58-.21-.74a12.6,12.6,0,0,1-.47,1.59l-.75,2.25Z"/><path class="cls-2" d="M95.21,6.85h2.57a4.83,4.83,0,0,1,2.58.53A1.8,1.8,0,0,1,101.15,9a1.94,1.94,0,0,1-.39,1.25,1.74,1.74,0,0,1-1.12.64V11a2.21,2.21,0,0,1,1.34.67,2,2,0,0,1,.43,1.34,2.19,2.19,0,0,1-.81,1.83,3.45,3.45,0,0,1-2.26.67H95.21Zm1.42,3.57H98a2.44,2.44,0,0,0,1.3-.27,1.07,1.07,0,0,0,.4-1,1,1,0,0,0-.44-.88A2.67,2.67,0,0,0,97.84,8H96.61Zm0,1.15v2.74h1.5A2.26,2.26,0,0,0,99.47,14a1.26,1.26,0,0,0,.46-1.07,1.16,1.16,0,0,0-.47-1,2.52,2.52,0,0,0-1.4-.32Z"/><path class="cls-2" d="M108.1,15.49h-4.89V6.85h4.89v1.2h-3.47V10.4h3.25v1.19h-3.25v2.69h3.47Z"/><path class="cls-2" d="M110,15.49V6.85h1.38v7.43H115v1.21Z"/><path class="cls-2" d="M124.92,15.49h-5.86V14.44l2.23-2.24a17.76,17.76,0,0,0,1.31-1.43,3.51,3.51,0,0,0,.47-.79,2.22,2.22,0,0,0,.15-.8,1.17,1.17,0,0,0-.36-.92,1.31,1.31,0,0,0-1-.34,2.69,2.69,0,0,0-1,.18,4.93,4.93,0,0,0-1.07.67l-.75-.91a4.94,4.94,0,0,1,1.4-.86A4.18,4.18,0,0,1,122,6.74a2.82,2.82,0,0,1,1.93.64,2.09,2.09,0,0,1,.73,1.68,3.05,3.05,0,0,1-.21,1.12,4.64,4.64,0,0,1-.67,1.08,14.78,14.78,0,0,1-1.45,1.51l-1.5,1.46v0h4.1Z"/><path class="cls-2" d="M130.06,6.85l-3.24,8.64h-1.31l3.22-8.64Z"/><path class="cls-2" d="M130.72,11.81c0-3.38,1.37-5.07,4.13-5.07a5.07,5.07,0,0,1,1.1.11V8a4.06,4.06,0,0,0-1-.13,2.77,2.77,0,0,0-2.09.74,3.62,3.62,0,0,0-.76,2.39h.08a1.86,1.86,0,0,1,.78-.74A2.52,2.52,0,0,1,134.1,10a2.35,2.35,0,0,1,1.83.72,2.83,2.83,0,0,1,.67,2,3,3,0,0,1-.76,2.16,2.75,2.75,0,0,1-2.07.78,2.86,2.86,0,0,1-1.61-.44,2.78,2.78,0,0,1-1.06-1.31A5,5,0,0,1,130.72,11.81Zm3,2.65a1.34,1.34,0,0,0,1.1-.45,2,2,0,0,0,.39-1.35,1.7,1.7,0,0,0-.36-1.17,1.34,1.34,0,0,0-1.1-.42,1.68,1.68,0,0,0-.82.19,1.51,1.51,0,0,0-.6.52,1.33,1.33,0,0,0-.22.67,2.3,2.3,0,0,0,.45,1.41A1.42,1.42,0,0,0,133.73,14.46Z"/><path class="cls-3" d="M12.78,41.88a6.47,6.47,0,0,0-6.45,6.45.93.93,0,0,0,.93.92H8.63v4.6a.92.92,0,0,0,.92.92H16a.92.92,0,0,0,.91-.92h0v-4.6H18.3a.92.92,0,0,0,.93-.9v0a6.44,6.44,0,0,0-6.44-6.45Z"/><path class="cls-3" d="M12.78,41.88a6.47,6.47,0,0,0-6.45,6.45.93.93,0,0,0,.93.92H8.63v4.6a.92.92,0,0,0,.92.92H16a.92.92,0,0,0,.91-.92h0v-4.6H18.3a.92.92,0,0,0,.93-.9v0a6.44,6.44,0,0,0-6.44-6.45Z"/><path class="cls-1" d="M12.78,32.41A12.78,12.78,0,1,0,25.55,45.19h0A12.78,12.78,0,0,0,12.78,32.41Zm0,2.26a3.25,3.25,0,1,1-3.25,3.25,3.24,3.24,0,0,1,3.25-3.25ZM18.3,49.24H16.91v4.6a.91.91,0,0,1-.91.92H9.55a.92.92,0,0,1-.92-.92v-4.6H7.26a.93.93,0,0,1-.93-.91,6.45,6.45,0,0,1,12.9,0,.91.91,0,0,1-.91.91Z"/><path class="cls-3" d="M12.78,74.17A6.45,6.45,0,0,0,6.33,80.6a.93.93,0,0,0,.93.92H8.63v4.6a.92.92,0,0,0,.92.92H16a.92.92,0,0,0,.91-.92v-4.6H18.3a.91.91,0,0,0,.93-.89v0A6.44,6.44,0,0,0,12.78,74.17Z"/><path class="cls-3" d="M12.78,74.17A6.45,6.45,0,0,0,6.33,80.6a.93.93,0,0,0,.93.92H8.63v4.6a.92.92,0,0,0,.92.92H16a.92.92,0,0,0,.91-.92v-4.6H18.3a.91.91,0,0,0,.93-.89v0A6.44,6.44,0,0,0,12.78,74.17Z"/><path class="cls-1" d="M12.78,64.7A12.78,12.78,0,1,0,25.55,77.48h0A12.78,12.78,0,0,0,12.78,64.7Zm0,2.25A3.25,3.25,0,1,1,9.53,70.2,3.25,3.25,0,0,1,12.78,67ZM18.3,81.53H16.91v4.6a.92.92,0,0,1-.91.92H9.55a.92.92,0,0,1-.92-.92v-4.6H7.26a.93.93,0,0,1-.93-.92h0a6.45,6.45,0,0,1,12.9,0,.91.91,0,0,1-.9.93Z"/><path class="cls-3" d="M12.78,9.47a6.45,6.45,0,0,0-6.45,6.44.92.92,0,0,0,.92.91H8.63v4.61a.92.92,0,0,0,.92.92H16a.91.91,0,0,0,.91-.91h0v-4.6H18.3a.91.91,0,0,0,.93-.89v0a6.44,6.44,0,0,0-6.44-6.44Z"/><path class="cls-3" d="M12.78,9.47a6.45,6.45,0,0,0-6.45,6.44.92.92,0,0,0,.92.91H8.63v4.61a.92.92,0,0,0,.92.92H16a.91.91,0,0,0,.91-.91h0v-4.6H18.3a.91.91,0,0,0,.93-.89v0a6.44,6.44,0,0,0-6.44-6.44Z"/><path class="cls-1" d="M12.78,0A12.78,12.78,0,1,0,25.55,12.78h0A12.78,12.78,0,0,0,12.78,0Zm0,2.25A3.25,3.25,0,1,1,9.53,5.5,3.25,3.25,0,0,1,12.78,2.25ZM18.3,16.82H16.91v4.61a.92.92,0,0,1-.91.92H9.55a.92.92,0,0,1-.92-.92h0v-4.6H7.26a.92.92,0,0,1-.93-.91h0a6.44,6.44,0,0,1,12.88-.42,2.94,2.94,0,0,1,0,.42A.9.9,0,0,1,18.3,16.82Z"/></g></svg>