<svg xmlns="http://www.w3.org/2000/svg" viewBox="0 0 159.29 55.93"><defs><style>.cls-1{fill:none;stroke:#40bea8;stroke-miterlimit:10;stroke-width:0.96px;}.cls-2{fill:#6fd8c4;}.cls-3{font-size:22.95px;}.cls-3,.cls-4{fill:#40bea8;font-family:OpenSans-Semibold, Open Sans;font-weight:600;}.cls-4{font-size:13.39px;}</style></defs><title>x</title><g id="IssueBoards-Body"><rect class="cls-1" x="0.48" y="0.48" width="157.82" height="54.97" rx="6.8"/><path class="cls-2" d="M32.87,35.82a16.16,16.16,0,0,1-2.09,4.25q-2.19,3.34-4.37,3.34A7.78,7.78,0,0,1,24,42.86a7.57,7.57,0,0,0-2.57-.54,6.48,6.48,0,0,0-2.41.56,6.05,6.05,0,0,1-2.25.59c-1.72,0-3.43-1.47-5.11-4.4a16.94,16.94,0,0,1-2.51-8.58,10.11,10.11,0,0,1,1.92-6.36,5.85,5.85,0,0,1,4.83-2.45,11.37,11.37,0,0,1,3,.51,10.7,10.7,0,0,0,2.36.51,8.38,8.38,0,0,0,2.43-.58,9.91,9.91,0,0,1,2.95-.58,6.24,6.24,0,0,1,3.62,1.11,8.64,8.64,0,0,1,1.77,1.7,10.87,10.87,0,0,0-1.94,2A6,6,0,0,0,29,29.9a6.45,6.45,0,0,0,1.18,3.79A5.18,5.18,0,0,0,32.87,35.82Zm-6.39-20A6.54,6.54,0,0,1,26,18.18a7,7,0,0,1-1.58,2.36,4.83,4.83,0,0,1-1.83,1.22,8.84,8.84,0,0,1-1.77.29,7.74,7.74,0,0,1,1.31-4.38,6.83,6.83,0,0,1,4.26-2.52c0,.06,0,.13,0,.19a1.16,1.16,0,0,0,0,.18v.17C26.46,15.76,26.48,15.82,26.48,15.87Z"/><text class="cls-3" transform="translate(40.39 42.04)">App Store</text><text class="cls-4" transform="translate(40.69 19.51)">Available on the</text></g></svg>