<svg xmlns="http://www.w3.org/2000/svg" viewBox="0 0 109.41 94.46"><defs><style>.cls-1{fill:#286060;}.cls-2{fill:none;stroke:#286060;stroke-miterlimit:10;stroke-width:2px;}.cls-3{fill:#40bea8;}</style></defs><title>x</title><g id="_Exports" data-name="• Exports"><path class="cls-1" d="M37.83,12h57a1.85,1.85,0,0,1,1.85,1.85h0a1.85,1.85,0,0,1-1.85,1.86h-57A1.85,1.85,0,0,1,36,13.89h0A1.85,1.85,0,0,1,37.83,12Z"/><path class="cls-1" d="M37.83,79.85H99.77a1.85,1.85,0,0,1,1.85,1.86h0a1.85,1.85,0,0,1-1.85,1.85H37.83A1.85,1.85,0,0,1,36,81.71h0A1.85,1.85,0,0,1,37.83,79.85Z"/><path class="cls-1" d="M37.83,46h69.73a1.85,1.85,0,0,1,1.85,1.85h0a1.85,1.85,0,0,1-1.85,1.85H37.83A1.85,1.85,0,0,1,36,47.8h0A1.85,1.85,0,0,1,37.83,46Z"/><rect class="cls-2" x="1" y="2.15" width="23.49" height="23.49" rx="3.6"/><rect class="cls-2" x="1" y="36.05" width="23.49" height="23.49" rx="3.6"/><rect class="cls-2" x="1" y="69.96" width="23.49" height="23.49" rx="3.6"/><path class="cls-3" d="M13.89,20.12a2.36,2.36,0,0,1-1.66-.69L4.68,12.06a2.35,2.35,0,0,1,3.2-3.45v0L8,8.8l5.82,5.61L27.71.62A2.36,2.36,0,0,1,31,4L15.55,19.43A2.36,2.36,0,0,1,13.89,20.12Z"/></g></svg>