<svg xmlns="http://www.w3.org/2000/svg" viewBox="0 0 91.27 115.62"><defs><style>.cls-1{fill:#286060;}.cls-2{fill:none;stroke:#549393;stroke-linejoin:round;stroke-width:1.15px;}.cls-3{fill:#40bea8;}</style></defs><title>x</title><g id="IssueBoards-Body"><rect class="cls-1" x="40.9" y="13.31" width="8.35" height="16.31" rx="1.23" transform="translate(16.65 62.51) rotate(-80.77)"/><rect class="cls-1" x="28.54" y="-2.91" width="8.35" height="16.31" rx="1.23" transform="translate(22.29 36.7) rotate(-80.77)"/><rect class="cls-1" x="18.7" y="25.8" width="16.31" height="8.35" rx="1.23" transform="translate(-1.37 1.29) rotate(-2.68)"/><rect class="cls-1" x="0.39" y="11.35" width="16.31" height="8.35" rx="1.23" transform="translate(-2.44 1.62) rotate(-9.46)"/><rect class="cls-1" x="56.45" y="-2.35" width="8.35" height="16.31" rx="1.23" transform="translate(50.36 65.84) rotate(-85.77)"/><rect class="cls-1" x="66.76" y="13.56" width="16.31" height="8.35" rx="1.23" transform="translate(-0.75 3.52) rotate(-2.68)"/><path class="cls-1" d="M69,30.48a1.23,1.23,0,0,0-1.13-1.32h0L54,28.14a1.22,1.22,0,0,0-1.31,1.13v0l-.35,4.78H68.69Z"/><polygon class="cls-2" points="39.81 78.49 39.81 91.83 52.48 98.76 52.48 78.49 90.69 34.05 0.86 34.05 39.81 78.49"/><rect class="cls-3" x="36.04" y="105.65" width="19.48" height="9.97" rx="1.46"/></g></svg>