<svg xmlns="http://www.w3.org/2000/svg" viewBox="0 0 99.27 86.62"><defs><style>.cls-1{fill:#40bea8;}</style></defs><title>x</title><g id="IssueBoards-Body"><g id="icons_dark" data-name="icons dark"><path class="cls-1" d="M96.11,19.58a2,2,0,1,0-3.92.7h0a1.84,1.84,0,0,0,.13.69,45.69,45.69,0,0,1-26.8,58.8,46.14,46.14,0,0,1-9.88,2.48V60.94a33.16,33.16,0,0,0,3.91-1V77.78A42,42,0,0,0,69.94.25,2,2,0,0,0,67.25,1l0,.07A2,2,0,0,0,67,2a2,2,0,0,0,1,1.74,38,38,0,0,1-4.46,68.66V56.49a6.08,6.08,0,0,0,4.35-5.77,6,6,0,0,0-3-5.22c1.42-13.7,7.68-10.09,7.68-14.44V28.45C72.61,21.92,57.46.59,50.41.07h-1.3C42,.59,26.91,21.89,26.91,28.45v2.61c0,4.35,6.24.74,7.68,14.44a6,6,0,0,0-3,5.22,6.09,6.09,0,0,0,4.28,5.77V72.38A38,38,0,0,1,31.27,3.72,2,2,0,1,0,29.35.25,42,42,0,0,0,39.69,77.78V59.89a33.85,33.85,0,0,0,3.92,1V82.25A45.71,45.71,0,0,1,6.91,20.89a2,2,0,0,0-3.72-1.31,49.59,49.59,0,0,0,44.39,67V61.45h4V86.57a49.61,49.61,0,0,0,44.5-67ZM58.78,47.84a4.08,4.08,0,1,1-1.19,2.88A4.1,4.1,0,0,1,58.78,47.84ZM40.5,53.61a4.07,4.07,0,0,1-5.76-5.76,4,4,0,0,1,2.89-1.2,4,4,0,0,1,2.87,1.19,4,4,0,0,1,0,5.74Z"/></g></g></svg>