<svg xmlns="http://www.w3.org/2000/svg" viewBox="0 0 95.38 86.62"><defs><style>.cls-1{fill:#40bea8;}</style></defs><title>x</title><g id="IssueBoards-Body"><g id="icons_dark" data-name="icons dark"><path class="cls-1" d="M94.86,42.65a12.85,12.85,0,0,0-3.66-5.22,29,29,0,0,0-7-4.55,67.38,67.38,0,0,0-13.57-4.8,110.83,110.83,0,0,0-16.28-2.71c-3.33-.29-6.66-.49-9.94-.49H43.29l.18-.25A86.12,86.12,0,0,1,54,13.84a44.2,44.2,0,0,1,8.3-5.65,16.81,16.81,0,0,1,5.88-2,5.16,5.16,0,0,1,4.82,2,8.15,8.15,0,0,1,1.58,6.45,14.8,14.8,0,0,1-1.83,5,2.08,2.08,0,0,0,.8,2.81h0a2.08,2.08,0,0,0,2.83-.82h0A17.55,17.55,0,0,0,78.75,14,12.2,12.2,0,0,0,76.6,6.17a8.94,8.94,0,0,0-5.81-3.92,12.78,12.78,0,0,0-5.7.42A27.29,27.29,0,0,0,57,6.43,68.39,68.39,0,0,0,44,17.86c-2,2.22-3.92,4.6-5.86,6.87a.45.45,0,0,1-.34.2c-1.24,0-2.5.11-3.74.21-1.83.14-3.66.32-5.49.48a16.65,16.65,0,0,0-2,.25.48.48,0,0,0-.1-.35c-.32-1.95-.69-3.92-1-5.9a34.9,34.9,0,0,1-.26-9,12.47,12.47,0,0,1,1-4.07A3.91,3.91,0,0,1,30.91,4.3,14.14,14.14,0,0,1,34.69,6a42.43,42.43,0,0,1,5.49,3.92,2,2,0,0,0,2.87-.23h0a2,2,0,0,0-.17-2.83h-.09a44.12,44.12,0,0,0-5.56-4.27A14.49,14.49,0,0,0,30.72.06a8.06,8.06,0,0,0-8.51,5.22,19.79,19.79,0,0,0-1.31,7.13A54.23,54.23,0,0,0,22,24.6c.1.6.22,1.22.33,1.83h-.14a70.69,70.69,0,0,0-7.84,1.95A36.83,36.83,0,0,0,6.11,32a15.19,15.19,0,0,0-4.54,4.35A8.54,8.54,0,0,0,0,42a9,9,0,0,0,1.83,4.41A19.51,19.51,0,0,0,7.6,51.43a24.53,24.53,0,0,0,4.18,2,2.08,2.08,0,0,0,2.73-1.11,2.52,2.52,0,0,0,.12-.39,2.12,2.12,0,0,0-1.45-2.39,21.17,21.17,0,0,1-4.66-2.51,12.92,12.92,0,0,1-3.66-3.92,3.91,3.91,0,0,1,0-4.14,8.7,8.7,0,0,1,2.06-2.34,21.79,21.79,0,0,1,5.49-3.18,53,53,0,0,1,9.14-2.72l1.7-.33v.13c.95,3.65,2.1,7.42,3.4,11.05a.4.4,0,0,1,0,.34c-.83,1.57-1.69,3.14-2.49,4.71a84.37,84.37,0,0,0-5.22,12.5A43.56,43.56,0,0,0,16.69,70.7a19.32,19.32,0,0,0,.6,6.06,11,11,0,0,0,3.63,6,10.18,10.18,0,0,0,9.54,1.67A26.45,26.45,0,0,0,38.61,80,2,2,0,0,0,39,77.22a2.09,2.09,0,0,0-2.8-.51c-.7.48-1.4,1-2.13,1.42a18.28,18.28,0,0,1-5.22,2.43,5.72,5.72,0,0,1-6.39-2.22,8.88,8.88,0,0,1-1.63-4.77,24,24,0,0,1,.35-6.27,51.87,51.87,0,0,1,2.38-8.46A93.25,93.25,0,0,1,27.86,48.7L28.72,47h0c.41,1,.81,1.92,1.24,2.85a104.88,104.88,0,0,0,9.7,17.06A70.43,70.43,0,0,0,51.53,80.24a31.88,31.88,0,0,0,7.67,5,13.72,13.72,0,0,0,7.3,1.31,6.88,6.88,0,0,0,3.55-1.39,10.52,10.52,0,0,0,2.87-3.65,21.37,21.37,0,0,0,1.82-8.18A51.45,51.45,0,0,0,73.67,61,89.91,89.91,0,0,0,70,47.76a93.86,93.86,0,0,0-3.92-9.35,1.83,1.83,0,0,0-1.83-1.2,2,2,0,0,0-1.83,1.3,2.24,2.24,0,0,0,.14,1.94A105.33,105.33,0,0,1,68,54.31a66.15,66.15,0,0,1,2.77,14.14,30.27,30.27,0,0,1-.27,7.84,12.39,12.39,0,0,1-1.53,4.29,3.92,3.92,0,0,1-3.66,2,10.4,10.4,0,0,1-3-.61,25.71,25.71,0,0,1-7-4.2A61.74,61.74,0,0,1,45.61,67.7,99.86,99.86,0,0,1,38.1,56.32a100.56,100.56,0,0,1-6.53-13.9.76.76,0,0,1,0-.47c1.09-1.83,2.1-3.65,3.25-5.47,1.65-2.5,3.39-4.92,5.09-7.29a.48.48,0,0,1,.44-.23h1.31a128.65,128.65,0,0,1,14.94.87q4.78.55,9.47,1.51a76,76,0,0,1,13.46,3.92,36.22,36.22,0,0,1,7.31,3.92,13.08,13.08,0,0,1,3.66,3.64,4.77,4.77,0,0,1,0,5.23A9.3,9.3,0,0,1,88,50.73a24,24,0,0,1-5.8,3.12,2,2,0,0,0-1.32,2.58v0a.21.21,0,0,0,0,.11,2.09,2.09,0,0,0,2.71,1.15h0a30.75,30.75,0,0,0,5.59-2.8,14.4,14.4,0,0,0,5.11-5.23A8.54,8.54,0,0,0,94.86,42.65ZM29.55,37.08c-.71-2.38-1.4-4.77-2.13-7.29l7.3-.71Z"/><path class="cls-1" d="M54,43.39a6.22,6.22,0,1,1-6.22-6.22h0A6.21,6.21,0,0,1,54,43.39Z"/></g></g></svg>