<svg xmlns="http://www.w3.org/2000/svg" viewBox="0 0 94.12 79.21"><defs><style>.cls-1{fill:#40bea8;}</style></defs><title>x</title><g id="IssueBoards-Body"><g id="icons_dark" data-name="icons dark"><path class="cls-1" d="M85.19,0H9.05a9,9,0,0,0-9,9h0v6.39L0,70.22a9,9,0,0,0,8.92,9H85.07a9,9,0,0,0,9-8.95h0l.07-54.85V9a9,9,0,0,0-8.91-9ZM30.8,6a2.7,2.7,0,1,1-2.69,2.71h0A2.68,2.68,0,0,1,30.78,6Zm-9,0a2.7,2.7,0,1,1-2.69,2.71h0A2.67,2.67,0,0,1,21.71,6Zm-9,0A2.7,2.7,0,1,1,10,8.68h0A2.69,2.69,0,0,1,12.71,6ZM90.63,70.22a5.55,5.55,0,0,1-5.55,5.57H9a5.56,5.56,0,0,1-5.54-5.58l.07-54.85H90.75Z"/></g></g></svg>