<svg xmlns="http://www.w3.org/2000/svg" viewBox="0 0 169.57 55.93"><defs><style>.cls-1{fill:none;stroke:#40bea8;stroke-miterlimit:10;stroke-width:0.96px;}.cls-2{font-size:22.95px;letter-spacing:-0.08em;}.cls-2,.cls-3,.cls-5{fill:#40bea8;}.cls-2,.cls-3{font-family:OpenSans-Semibold, Open Sans;font-weight:600;}.cls-3{font-size:8.61px;}.cls-4{fill:#6fd8c4;}.cls-5{opacity:0.84;}</style></defs><title>x</title><g id="IssueBoards-Body"><rect class="cls-1" x="0.48" y="0.48" width="168.61" height="54.97" rx="6.8"/><text class="cls-2" transform="translate(51.17 38.65)">Google Play</text><text class="cls-3" transform="translate(53.7 14.81)">ANDRIOD APP ON</text><path class="cls-4" d="M36.24,22.39,13,9l-.08,0L31.26,27.39Z"/><path class="cls-5" d="M11.2,10V46a1.16,1.16,0,0,0,.53,1L30.25,28.4l-18.91-19A1.24,1.24,0,0,0,11.2,10Z"/><path class="cls-5" d="M44.2,29a1.17,1.17,0,0,0,0-2l-6.68-3.86L32.27,28.4,37,33.16Z"/><polygon class="cls-4" points="14.72 46.03 35.73 33.91 31.26 29.42 14.72 46.03"/></g></svg>