<svg xmlns="http://www.w3.org/2000/svg" viewBox="0 0 104.98 104.38"><defs><style>.cls-1{fill:#40bea8;}.cls-2{fill:#286060;}</style></defs><title>x</title><g id="IssueBoards-Body"><path class="cls-1" d="M68,74.31a2.46,2.46,0,0,1-1.75-.73L49.79,57.19a2.52,2.52,0,0,1-.72-1.76V16.8a2.47,2.47,0,1,1,4.94,0V54.41l15.7,15.68A2.47,2.47,0,0,1,68,74.31Z"/><path class="cls-2" d="M105,52.48a52.49,52.49,0,0,1-105,0V51.25H7.4v1.23A45.15,45.15,0,1,0,20.65,20.64l8.28,8.27H7.57V7.57l7.84,7.83h0A52.45,52.45,0,0,1,105,52.48Z"/></g></svg>